<?xml version="1.0" encoding="UTF-8"?>
<svg width="1024px" height="1024px" viewBox="0 0 1024 1024" version="1.1" xmlns="http://www.w3.org/2000/svg" xmlns:xlink="http://www.w3.org/1999/xlink">
    <title>Arrows</title>
    <g id="Arrows" stroke="none" fill="none" fill-rule="evenodd" stroke-width="1">
        <g id="header" fill="#000000">
            <path d="M911.223,123.664 L824.385,26.664 C822.867,24.969 820.7,24 818.424,24 L739.899,24 C732.983,24 729.326,32.183 733.939,37.336 L816,129 L733.939,220.664 C729.326,225.817 732.983,234 739.899,234 L818.424,234 C820.7,234 822.867,233.031 824.385,231.336 L911.223,134.336 C913.942,131.298 913.942,126.702 911.223,123.664 L911.223,123.664 Z M624.385,26.664 C622.867,24.969 620.7,24 618.424,24 L539.899,24 C532.983,24 529.326,32.183 533.939,37.336 L616,129 L533.939,220.664 C529.326,225.817 532.983,234 539.899,234 L618.424,234 C620.7,234 622.867,233.031 624.385,231.336 L711.223,134.336 C713.942,131.298 713.942,126.702 711.223,123.664 L624.385,26.664 Z M511.223,123.664 C513.942,126.702 513.942,131.298 511.223,134.336 L424.385,231.336 C422.867,233.031 420.7,234 418.424,234 L339.899,234 C332.983,234 329.326,225.817 333.939,220.664 L416,129 L333.939,37.336 C329.326,32.183 332.983,24 339.899,24 L418.424,24 C420.7,24 422.867,24.969 424.385,26.664 L511.223,123.664 Z" id="Fill-3"></path>
        </g>
    </g>
</svg>