<?xml version="1.0" encoding="UTF-8"?>
<svg width="1028px" height="1028px" viewBox="0 0 1028 1028" version="1.1" xmlns="http://www.w3.org/2000/svg" xmlns:xlink="http://www.w3.org/1999/xlink">
    <title>Grid</title>
    <g id="Grid" stroke="none" fill="none" transform="translate(2, 2)" fill-rule="evenodd" opacity="0.239999995" stroke-width="1">
        <g id="grid" transform="translate(-1.4142, -1.4142)" fill="#FFFFFF">
            <path d="M1024,2.27373675e-13 L1026.82843,2.82842712 L902.242,127.414 L1025.41421,127.414214 L1025.41421,131.414214 L899.414,131.414 L899.414,255.414 L1025.41421,255.414214 L1025.41421,259.414214 L899.414,259.414 L899.424262,369.079992 C901.196309,373.8171 902.883653,378.59555 904.484452,383.413501 L1025.41421,383.414214 L1025.41421,387.414214 L905.789405,387.409595 C918.339378,426.521223 925.203688,468.179467 925.409448,511.411442 L1025.41421,511.414214 L1025.41421,515.414214 L925.398,515.414 L925.359017,520.227394 C924.685958,561.739863 917.873266,601.75983 905.789405,639.418832 L1025.41421,639.414214 L1025.41421,643.414214 L904.484452,643.414926 C902.883653,648.232877 901.196309,653.011328 899.424262,657.748435 L899.414,767.414 L1025.41421,767.414214 L1025.41421,771.414214 L899.414,771.414 L899.414,895.414 L1025.41421,895.414214 L1025.41421,899.414214 L902.242,899.414 L1026.82843,1024 L1024,1026.82843 L899.414,902.242 L899.414214,1025.41421 L895.414214,1025.41421 L895.414,899.414 L771.414,899.414 L771.414214,1025.41421 L767.414214,1025.41421 L767.414,899.414 L657.748435,899.424262 C653.011328,901.196309 648.232877,902.883653 643.414926,904.484452 L643.414214,1025.41421 L639.414214,1025.41421 L639.418832,905.789405 C600.307205,918.339378 558.64896,925.203688 515.416985,925.409448 L515.414214,1025.41421 L511.414214,1025.41421 L511.414,925.398 L506.601033,925.359017 C465.088564,924.685958 425.068597,917.873266 387.409595,905.789405 L387.414214,1025.41421 L383.414214,1025.41421 L383.413501,904.484452 C378.59555,902.883653 373.8171,901.196309 369.079992,899.424262 L259.414,899.414 L259.414214,1025.41421 L255.414214,1025.41421 L255.414,899.414 L131.414,899.414 L131.414214,1025.41421 L127.414214,1025.41421 L127.414,902.242 L2.82842712,1026.82843 L2.27373675e-13,1024 L124.586,899.414 L1.41421356,899.414214 L1.41421356,895.414214 L127.414,895.414 L127.414,771.414 L1.41421356,771.414214 L1.41421356,767.414214 L127.414,767.414 L127.40454,657.749436 C125.632356,653.012001 123.944887,648.233216 122.343975,643.414926 L1.41421356,643.414214 L1.41421356,639.414214 L121.039022,639.418832 C108.489049,600.307205 101.624739,558.64896 101.418979,515.416985 L1.41421356,515.414214 L1.41421356,511.414214 L101.43,511.414 L101.46941,506.601033 C102.142469,465.088564 108.955161,425.068597 121.039022,387.409595 L1.41421356,387.414214 L1.41421356,383.414214 L122.343975,383.413501 C123.944887,378.595211 125.632356,373.816426 127.40454,369.078991 L127.414,259.414 L1.41421356,259.414214 L1.41421356,255.414214 L127.414,255.414 L127.414,131.414 L1.41421356,131.414214 L1.41421356,127.414214 L124.586,127.414 L2.27373675e-13,2.82842712 L2.82842712,6.82121026e-13 L127.414,124.586 L127.414214,1.41421356 L131.414214,1.41421356 L131.414,127.414 L255.414,127.414 L255.414214,1.41421356 L259.414214,1.41421356 L259.414,127.414 L369.078991,127.40454 C373.816426,125.632356 378.595211,123.944887 383.413501,122.343975 L383.414214,1.41421356 L387.414214,1.41421356 L387.409595,121.039022 C426.521223,108.489049 468.179467,101.624739 511.411442,101.418979 L511.414214,1.41421356 L515.414214,1.41421356 L515.414,101.43 L520.227394,101.46941 C561.739863,102.142469 601.75983,108.955161 639.418832,121.039022 L639.414214,1.41421356 L643.414214,1.41421356 L643.414926,122.343975 C648.233216,123.944887 653.012001,125.632356 657.749436,127.40454 L767.414,127.414 L767.414214,1.41421356 L771.414214,1.41421356 L771.414,127.414 L895.414,127.414 L895.414214,1.41421356 L899.414214,1.41421356 L899.414,124.586 L1024,2.27373675e-13 Z M511.414,899.414 L387.414,899.414 L387.409342,901.585169 C426.489733,914.262175 468.155044,921.201512 511.411496,921.409402 L511.414,899.414 Z M639.414,899.414 L515.414,899.414 L515.414,921.398 L520.161247,921.359553 C561.720961,920.685728 601.770108,913.797957 639.420085,901.584845 L639.414,899.414 Z M383.414,899.414 L380.938542,899.425725 C381.761703,899.708162 382.586053,899.988039 383.411582,900.265349 L383.414,899.414 Z M645.889885,899.425725 L643.414,899.414 L643.417847,900.265012 C644.243041,899.987813 645.067057,899.708047 645.889885,899.425725 Z M511.414,771.414 L387.414,771.414 L387.414,895.414 L511.414,895.414 L511.414,771.414 Z M771.41658,834.647628 L771.414,895.414 L892.586,895.414 L803.324821,806.152962 C793.192412,816.18809 782.541758,825.700886 771.41658,834.647628 Z M767.414,771.414 L643.414,771.414 L643.414,895.414 L657.016093,895.425676 C697.220554,880.305179 734.406412,859.019769 767.421769,832.721346 L767.414,771.414 Z M259.41144,837.823624 L259.414,895.414 L358.789681,895.415728 C322.865284,880.860203 289.460569,861.384201 259.41144,837.823624 Z M668.038746,895.415728 L767.414,895.414 L767.417876,837.822927 C737.368517,861.383817 703.963498,880.86006 668.038746,895.415728 Z M383.414,771.414 L259.414,771.414 L259.407274,832.721837 C292.42236,859.019941 329.607858,880.305121 369.811904,895.425514 L383.414,895.414 L383.414,771.414 Z M223.503921,806.153274 L134.242,895.414 L255.414,895.414 L255.411926,834.647691 C244.286835,825.701024 233.63626,816.188311 223.503921,806.153274 Z M639.414,771.414 L515.414,771.414 L515.414,895.414 L639.414,895.414 L639.414,771.414 Z M895.414,771.414 L834.647628,771.41658 C825.700886,782.541758 816.18809,793.192412 806.152962,803.324821 L895.414,892.586 L895.414,771.414 Z M192.180799,771.41658 L131.414,771.414 L131.414,892.586 L220.675465,803.324821 C210.640337,793.192412 201.127541,782.541758 192.180799,771.41658 Z M771.414,774.242 L771.422132,829.493655 C781.528202,821.234452 791.230841,812.50017 800.495968,803.32489 L771.414,774.242 Z M255.414,774.242 L226.332141,803.324575 C235.597536,812.500141 245.30047,821.234682 255.406859,829.494115 L255.414,774.242 Z M252.586,771.414 L197.334772,771.422132 C205.594271,781.528565 214.328884,791.231538 223.504525,800.496966 L252.586,771.414 Z M829.493655,771.422132 L774.242,771.414 L803.32489,800.495968 C812.50017,791.230841 821.234452,781.528202 829.493655,771.422132 Z M643.417694,736.314955 L643.414,767.414 L764.586,767.414 L694.427802,697.256902 C679.16192,712.289317 662.03253,725.434689 643.417694,736.314955 Z M387.412508,738.606185 L387.414,767.414 L467.926724,767.417123 C439.157119,762.299603 412.036972,752.413881 387.412508,738.606185 Z M131.412699,668.038746 L131.414,767.414 L189.0055,767.417876 C165.44461,737.368517 145.968367,703.963498 131.412699,668.038746 Z M332.40012,697.256405 L262.242,767.414 L383.414,767.414 L383.411004,736.315114 C364.795859,725.434697 347.666204,712.2891 332.40012,697.256405 Z M255.414,643.414 L131.414,643.414 L131.403504,657.018094 C146.523954,697.221788 167.809094,734.40696 194.107081,767.421769 L255.414,767.414 L255.414,643.414 Z M837.822927,767.417876 L895.414,767.414 L895.415728,668.038746 C880.86006,703.963498 861.383817,737.368517 837.822927,767.417876 Z M558.901596,767.417142 L639.414,767.414 L639.415919,738.606185 C614.791425,752.413898 587.67124,762.299627 558.901596,767.417142 Z M895.414,643.414 L771.414,643.414 L771.414,767.414 L832.721346,767.421769 C859.019769,734.406412 880.305179,697.220554 895.425676,657.016093 L895.414,643.414 Z M639.414,643.414 L515.414,643.414 L515.414,767.398 L517.614571,767.380185 C561.894509,766.662254 603.420002,754.613454 639.417955,734.006881 L639.414,643.414 Z M511.414,643.414 L387.414,643.414 L387.410784,734.00706 C424.003862,754.954236 466.308738,767.05835 511.4125,767.406491 L511.414,643.414 Z M290.513472,643.417694 L259.414,643.414 L259.414,764.586 L329.57251,694.428802 C314.539685,679.162668 301.393976,662.032936 290.513472,643.417694 Z M767.414,643.414 L736.314955,643.417694 C725.434689,662.03253 712.289317,679.16192 697.256902,694.427802 L767.414,764.586 L767.414,643.414 Z M383.414,646.242 L335.229265,694.428514 C349.700608,708.675063 365.87232,721.199426 383.412247,731.669449 L383.414,646.242 Z M643.414,646.242 L643.41618,731.669449 C660.956314,721.199302 677.128201,708.674767 691.599675,694.428009 L643.414,646.242 Z M380.586,643.414 L295.158979,643.41618 C305.629125,660.956314 318.15366,677.128201 332.400418,691.599675 L380.586,643.414 Z M731.669449,643.41618 L646.242,643.414 L694.428009,691.599675 C708.674767,677.128201 721.199302,660.956314 731.669449,643.41618 Z M127.414,643.414 L126.563415,643.417847 C126.840726,644.243375 127.120606,645.067724 127.403045,645.890884 L127.414,643.414 Z M900.265012,643.417847 L899.414,643.414 L899.425725,645.889885 C899.708047,645.067057 899.987813,644.243041 900.265012,643.417847 Z M921.409402,515.416931 L899.414,515.414 L899.414,639.414 L901.584845,639.420085 C914.262057,600.339404 921.20151,558.673752 921.409402,515.416931 Z M441.303278,588.35441 L390.242,639.414 L511.414,639.414 L511.413904,617.395361 C484.205677,616.882106 459.553823,605.920144 441.303278,588.35441 Z M383.414,515.414 L259.43,515.414 L259.448242,517.614571 C260.166173,561.894509 272.214973,603.420002 292.821546,639.417955 L383.414,639.414 L383.414,515.414 Z M738.606185,639.415919 L767.414,639.414 L767.417142,558.901596 C762.299627,587.67124 752.413898,614.791425 738.606185,639.415919 Z M259.411463,558.902594 L259.414,639.414 L288.222242,639.415919 C274.414689,614.79171 264.529028,587.671868 259.411463,558.902594 Z M255.414,515.414 L131.414,515.414 L131.414,639.414 L255.414,639.414 L255.414,515.414 Z M767.406487,515.416403 L643.414,515.414 L643.414,639.414 L734.006881,639.417955 C754.954094,602.824934 767.058264,560.520115 767.406487,515.416403 Z M515.414524,617.395361 L515.414,639.414 L636.586,639.414 L585.525149,588.35441 C567.274604,605.920144 542.62275,616.882106 515.414524,617.395361 Z M895.414,515.414 L771.414,515.414 L771.414,639.414 L895.414,639.414 L895.414,515.414 Z M127.414,515.414 L105.43,515.414 L105.468874,520.161247 C106.1427,561.720961 113.03047,601.770108 125.243582,639.420085 L127.414,639.414 L127.414,515.414 Z M409.433066,515.414524 L387.414,515.414 L387.414,636.586 L438.474976,585.526146 C420.908682,567.275501 409.94633,542.623245 409.433066,515.414524 Z M639.414,515.414 L617.395361,515.414524 C616.882106,542.62275 605.920144,567.274604 588.35441,585.525149 L639.414,636.586 L639.414,515.414 Z M511.414,518.242 L444.131992,585.525198 C461.657877,602.367778 485.310063,612.882449 511.413945,613.394607 L511.414,518.242 Z M515.414,518.242 L515.415272,613.394591 C541.519337,612.882227 565.171624,602.367209 582.697432,585.524239 L515.414,518.242 Z M508.586,515.414 L413.433836,515.415272 C413.946201,541.519337 424.461218,565.171624 441.304188,582.697432 L508.586,515.414 Z M613.394591,515.415272 L518.242,515.414 L585.524239,582.697432 C602.367209,565.171624 612.882227,541.519337 613.394591,515.415272 Z M255.414,387.414 L131.414,387.414 L131.414,511.414 L255.414,511.414 L255.414,387.414 Z M383.414,387.414 L292.821367,387.410784 C271.874191,424.003862 259.770077,466.308738 259.421937,511.4125 L383.414,511.414 L383.414,387.414 Z M734.00706,387.410784 L643.414,387.414 L643.414,511.414 L767.398,511.414 L767.380185,509.213856 C766.662256,464.934046 754.613524,423.408665 734.00706,387.410784 Z M901.585169,387.409342 L899.414,387.414 L899.414,511.414 L921.398,511.414 L921.359553,506.66718 C920.685733,465.107834 913.798079,425.059028 901.585169,387.409342 Z M127.414,387.414 L125.243258,387.409342 C112.566252,426.489733 105.626916,468.155044 105.419025,511.411496 L127.414,511.414 L127.414,387.414 Z M895.414,387.414 L771.414,387.414 L771.414,511.414 L895.414,511.414 L895.414,387.414 Z M585.525198,444.131992 L518.242,511.414 L613.394607,511.413945 C612.882449,485.310063 602.367778,461.657877 585.525198,444.131992 Z M387.414,390.242 L387.414,511.414 L409.433066,511.413904 C409.946321,484.205677 420.908283,459.553823 438.474018,441.303278 L387.414,390.242 Z M413.43382,511.413945 L508.586,511.414 L441.303229,444.131992 C424.460649,461.657877 413.945979,485.310063 413.43382,511.413945 Z M639.414,390.242 L588.35441,441.303278 C605.920144,459.553823 616.882106,484.205677 617.395361,511.413904 L639.414,511.414 L639.414,390.242 Z M515.415272,413.433836 L515.414,508.586 L582.697432,441.304188 C565.171624,424.461218 541.519337,413.946201 515.415272,413.433836 Z M444.131992,441.303229 L511.414,508.586 L511.413945,413.43382 C485.310063,413.945979 461.657877,424.460649 444.131992,441.303229 Z M767.414,387.414 L738.606185,387.412508 C752.413881,412.036972 762.299603,439.157119 767.417123,467.926724 L767.414,387.414 Z M288.222242,387.412508 L259.414,387.414 L259.411482,467.925726 C264.529053,439.156492 274.414706,412.036687 288.222242,387.412508 Z M511.414,387.414 L390.242,387.414 L441.303278,438.474018 C459.553823,420.908283 484.205677,409.946321 511.413904,409.433066 L511.414,387.414 Z M636.586,387.414 L515.414,387.414 L515.414524,409.433066 C542.623245,409.94633 567.275501,420.908682 585.526146,438.474976 L636.586,387.414 Z M126.563078,383.411582 L127.414,383.414 L127.403045,380.937543 C127.120492,381.761036 126.8405,382.585719 126.563078,383.411582 Z M832.721837,259.407274 L771.414,259.414 L771.414,383.414 L895.414,383.414 L895.425514,369.811904 C880.305121,329.607858 859.019941,292.42236 832.721837,259.407274 Z M694.428514,335.229265 L646.242,383.414 L731.669449,383.412247 C721.199426,365.87232 708.675063,349.700608 694.428514,335.229265 Z M899.425725,380.938542 L899.414,383.414 L900.265349,383.411582 C899.988039,382.586053 899.708162,381.761703 899.425725,380.938542 Z M255.414,259.414 L194.10659,259.407274 C167.808705,292.422086 146.523659,329.607242 131.403289,369.810904 L131.414,383.414 L255.414,383.414 L255.414,259.414 Z M511.414,259.43 L513.414214,259.414214 C467.56051,259.414214 424.544705,271.564594 387.410784,292.821367 L387.414,383.414 L511.414,383.414 L511.414,259.43 Z M515.416403,259.42194 L515.414,383.414 L639.414,383.414 L639.417955,292.821546 C602.824934,271.874334 560.520115,259.770163 515.416403,259.42194 Z M259.414,262.242 L259.414,383.414 L290.513313,383.411004 C301.39373,364.795859 314.539327,347.666204 329.572022,332.40012 L259.414,262.242 Z M295.158979,383.412247 L380.586,383.414 L332.399913,335.229265 C318.153364,349.700608 305.629001,365.87232 295.158979,383.412247 Z M767.414,262.242 L697.256405,332.40012 C712.2891,347.666204 725.434697,364.795859 736.315114,383.411004 L767.414,383.414 L767.414,262.242 Z M335.229265,332.399913 L383.414,380.586 L383.412247,295.158979 C365.87232,305.629001 349.700608,318.153364 335.229265,332.399913 Z M643.41618,295.158979 L643.414,380.586 L691.599675,332.400418 C677.128201,318.15366 660.956314,305.629125 643.41618,295.158979 Z M895.414,259.414 L837.823624,259.41144 C861.384201,289.460569 880.860203,322.865284 895.415728,358.789681 L895.414,259.414 Z M189.004803,259.41144 L131.414,259.414 L131.412699,358.789681 C145.968224,322.865284 165.444226,289.460569 189.004803,259.41144 Z M764.586,259.414 L643.414,259.414 L643.417694,290.513472 C662.032936,301.393976 679.162668,314.539685 694.428802,329.57251 L764.586,259.414 Z M383.414,259.414 L262.242,259.414 L332.40012,329.572022 C347.666204,314.539327 364.795859,301.39373 383.411004,290.513313 L383.414,259.414 Z M639.414,259.414 L558.902594,259.411463 C587.671868,264.529028 614.79171,274.414689 639.415919,288.222242 L639.414,259.414 Z M467.925726,259.411482 L387.414,259.414 L387.412508,288.222242 C412.036687,274.414706 439.156492,264.529053 467.925726,259.411482 Z M197.334312,255.406859 L252.586,255.414 L223.503852,226.332141 C214.328286,235.597536 205.593745,245.30047 197.334312,255.406859 Z M895.414,134.242 L806.153274,223.503921 C816.188311,233.63626 825.701024,244.286835 834.647691,255.411926 L895.414,255.414 L895.414,134.242 Z M639.414,131.414 L515.414,131.414 L515.414,255.414 L639.414,255.414 L639.414,131.414 Z M511.414,131.414 L387.414,131.414 L387.414,255.414 L511.414,255.414 L511.414,131.414 Z M383.414,131.414 L369.810904,131.403289 C329.607242,146.523659 292.422086,167.808705 259.407274,194.10659 L259.414,255.414 L383.414,255.414 L383.414,131.414 Z M657.018094,131.403504 L643.414,131.414 L643.414,255.414 L767.414,255.414 L767.421769,194.107081 C734.40696,167.809094 697.221788,146.523954 657.018094,131.403504 Z M803.324575,226.332141 L774.242,255.414 L829.494115,255.406859 C821.234682,245.30047 812.500141,235.597536 803.324575,226.332141 Z M131.414,134.242 L131.414,255.414 L192.180736,255.411926 C201.127404,244.286835 210.640116,233.63626 220.675153,223.503921 L131.414,134.242 Z M226.332141,223.503852 L255.414,252.586 L255.406859,197.334312 C245.30047,205.593745 235.597536,214.328286 226.332141,223.503852 Z M771.422132,197.334772 L771.414,252.586 L800.496966,223.504525 C791.231538,214.328884 781.528565,205.594271 771.422132,197.334772 Z M255.414,131.414 L134.242,131.414 L223.503921,220.675153 C233.63626,210.640116 244.286835,201.127404 255.411926,192.180736 L255.414,131.414 Z M892.586,131.414 L771.414,131.414 L771.41658,192.180799 C782.541758,201.127541 793.192412,210.640337 803.324821,220.675465 L892.586,131.414 Z M767.414,131.414 L668.038746,131.412699 C703.963498,145.968367 737.368517,165.44461 767.417876,189.0055 L767.414,131.414 Z M358.789681,131.412699 L259.414,131.414 L259.41144,189.004803 C289.460569,165.444226 322.865284,145.968224 358.789681,131.412699 Z M643.417847,126.563415 L643.414,127.414 L645.890884,127.403045 C645.067724,127.120606 644.243375,126.840726 643.417847,126.563415 Z M380.937543,127.403045 L383.414,127.414 L383.411582,126.563078 C382.585719,126.8405 381.761036,127.120492 380.937543,127.403045 Z M511.414,105.43 L513.414214,105.414214 C469.440965,105.414214 427.092516,112.370719 387.409342,125.243258 L387.414,127.414 L511.414,127.414 L511.414,105.43 Z M515.416931,105.419025 L515.414,127.414 L639.414,127.414 L639.420085,125.243582 C600.339404,112.56637 558.673752,105.626917 515.416931,105.419025 Z" fill-rule="nonzero"></path>
        </g>
    </g>
</svg>