<?xml version="1.0" encoding="UTF-8"?>
<svg width="1024px" height="1024px" viewBox="0 0 1024 1024" version="1.1" xmlns="http://www.w3.org/2000/svg" xmlns:xlink="http://www.w3.org/1999/xlink">
    <title>Hinge</title>
    <g id="Hinge" stroke="none" fill="none" fill-rule="evenodd" stroke-width="1">
        <g id="header" fill="#000000">
            <path d="M230.201,33.157 C228.391,31.135 225.68,30.156 223,30.585 C210.587,32.573 197.356,36.041 188.258,38.876 C175.703,42.79 163.822,47.617 152.4,53.43 C131.21,64.21 111.92,78.23 95.07,95.07 C78.23,111.92 64.22,131.21 53.43,152.4 C44.39,170.16 37.72,189.01 33.2,209.8 C30.58,221.83 39.58,234 52.75,234 L218.424,234 C220.7,234 222.867,233.031 224.385,231.336 L311.223,134.336 C313.942,131.298 313.942,126.702 311.223,123.664 L230.201,33.157 Z" id="hinge"></path>
        </g>
    </g>
</svg>