<?xml version="1.0" encoding="UTF-8"?>
<svg width="1024px" height="1024px" viewBox="0 0 1024 1024" version="1.1" xmlns="http://www.w3.org/2000/svg" xmlns:xlink="http://www.w3.org/1999/xlink">
    <title>Log</title>
    <g id="Log" stroke="none" fill="none" fill-rule="evenodd">
        <path d="M267.936984,382 L236.745325,382 C231.914991,382 228,385.911308 228,390.737099 L228,761.262901 C228,766.088692 231.914991,770 236.745325,770 L429.667196,770 C434.497531,770 438.412521,766.088692 438.412521,761.262901 L438.412521,734.425446 C438.412521,729.599655 434.497531,725.688347 429.667196,725.688347 L279.597418,725.688347 C277.986821,725.688347 276.68231,724.385063 276.68231,722.77598 L276.68231,390.737099 C276.68231,385.911308 272.767319,382 267.936984,382 M797,390.737099 L797,761.262901 C797,766.088692 793.085009,770 788.254675,770 L708.957897,770 C705.306724,770 702.038888,767.734179 700.763528,764.316517 L574.861456,427.128572 C574.437307,425.989837 573.347057,425.234078 572.129999,425.234078 L552.728495,425.234078 C551.117898,425.234078 549.813387,426.537362 549.813387,428.146444 L549.813387,761.262901 C549.813387,766.088692 545.898396,770 541.068062,770 L514.205338,770 C509.375004,770 505.460013,766.088692 505.460013,761.262901 L505.460013,390.737099 C505.460013,385.911308 509.375004,382 514.205338,382 L597.831052,382 C601.482225,382 604.748604,384.265821 606.025421,387.683483 L731.927494,724.871428 C732.3531,726.010163 733.441893,726.765922 734.65895,726.765922 L749.192223,726.765922 C750.80282,726.765922 752.107331,725.462638 752.107331,723.853556 L752.107331,390.737099 C752.107331,385.911308 756.022322,382 760.852656,382 L788.254675,382 C793.085009,382 797,385.911308 797,390.737099" id="ln" fill="#FFFFFF"></path>
    </g>
</svg>